# xmcd
#
# Track frame offsets:
#	182
#	12687
#	26902
#	42075
#	56212
#	69627
#	86642
#	100485
#	112680
#	126817
#
# Disc length: 1920 seconds
#
# Revision: 5
# Processed by: cddbd v1.5.1PL2 Copyright (c) Steve Scherf et al.
# Submitted via: dBpowerAMP V4.0
#
DISCID=89077e0a
DTITLE=Daryle Singletary - Daryle Singletary
DYEAR=1995
DGENRE=Country
TTITLE0=Too Much Fun
TTITLE1=I'm Living Up To Her Low Expectations
TTITLE2=There's A Cold Spell Movin' In
TTITLE3=Ordinary Heroes
TTITLE4=I Let Her Lie
TTITLE5=A Love That Never Died
TTITLE6=Workin' It Out
TTITLE7=My Heart's Too Broke (To Pay Attention)
TTITLE8=Would These Arms Be In Your Way
TTITLE9=What Am I Doing There
EXTD=
EXTT0=
EXTT1=
EXTT2=
EXTT3=
EXTT4=
EXTT5=
EXTT6=
EXTT7=
EXTT8=
EXTT9=
PLAYORDER=
